<svg width="420" height="392" viewBox="0 0 420 392" fill="none" xmlns="http://www.w3.org/2000/svg">
<g clip-path="url(#clip0_7_157)">
<rect width="420" height="392" fill="#F2EBFF"/>
<g opacity="0.74">
<path d="M42 81C42 47.3106 69.3106 20 103 20H322C355.689 20 383 47.3106 383 81V305C383 338.689 355.689 366 322 366H103C69.3106 366 42 338.689 42 305V81Z" fill="#DFD4FE"/>
<line x1="209.714" y1="61.5895" x2="278.714" y2="13.5896" stroke="white"/>
<rect x="133" y="102.351" width="76.5043" height="85.4841" transform="rotate(-36.3986 133 102.351)" fill="#FF0000"/>
</g>
<line x1="117.612" y1="108.742" x2="196.053" y2="54.7801" stroke="#FF0000" stroke-width="20"/>
<line x1="117.612" y1="108.742" x2="196.053" y2="54.7801" stroke="#FF0000" stroke-width="20"/>
<line x1="129.047" y1="111.81" x2="185.163" y2="188.299" stroke="#FF0000" stroke-width="20"/>
<line x1="196.073" y1="50.0991" x2="252.053" y2="126.688" stroke="#FF0000" stroke-width="20"/>
<line x1="184.073" y1="185.099" x2="240.053" y2="261.688" stroke="#F2EBFF" stroke-width="20"/>
<line x1="262.073" y1="140.099" x2="318.053" y2="216.688" stroke="#4890F6" stroke-width="20"/>
<line x1="63.0734" y1="22.0991" x2="119.053" y2="98.6876" stroke="#F2EBFF" stroke-width="20"/>
<line x1="151.073" y1="-11.9009" x2="207.053" y2="64.6876" stroke="#F2EBFF" stroke-width="20"/>
<line x1="179.332" y1="183.723" x2="257.774" y2="129.761" stroke="#FF0000" stroke-width="20"/>
<line x1="196.332" y1="59.7232" x2="274.774" y2="5.76122" stroke="#F2EBFF" stroke-width="20"/>
<line x1="257.332" y1="128.723" x2="335.774" y2="74.7612" stroke="#4890F6" stroke-width="20"/>
<line x1="328.537" y1="80.5863" x2="377.537" y2="48.6243" stroke="#F2EBFF" stroke-width="20"/>
<line x1="236.064" y1="269.952" x2="377.064" y2="165.952" stroke="#F2EBFF" stroke-width="20"/>
<line x1="277.037" y1="14.0502" x2="391.037" y2="168.05" stroke="#F2EBFF" stroke-width="20"/>
<circle cx="325.5" cy="82.5" r="17.5" fill="black" fill-opacity="0.98"/>
<circle cx="183.5" cy="182.5" r="17.5" fill="black" fill-opacity="0.98"/>
<circle cx="198.5" cy="53.5" r="17.5" fill="black" fill-opacity="0.98"/>
<circle cx="382.5" cy="156.5" r="17.5" fill="black" fill-opacity="0.98"/>
<circle cx="256.5" cy="131.5" r="17.5" fill="black" fill-opacity="0.98"/>
<circle cx="123.5" cy="105.5" r="17.5" fill="black" fill-opacity="0.98"/>
<circle cx="256.5" cy="131.5" r="17.5" fill="black" fill-opacity="0.98"/>
<line x1="243.073" y1="262.099" x2="299.053" y2="338.688" stroke="#F2EBFF" stroke-width="20"/>
<circle cx="241.5" cy="260.5" r="17.5" fill="black" fill-opacity="0.98"/>
<line x1="316.073" y1="217.099" x2="372.053" y2="293.688" stroke="#F2EBFF" stroke-width="20"/>
<line x1="298.082" y1="343.939" x2="377.082" y2="285.939" stroke="#F2EBFF" stroke-width="20"/>
<circle cx="311.5" cy="211.5" r="17.5" fill="black" fill-opacity="0.98"/>
<circle cx="367.5" cy="289.5" r="17.5" fill="black" fill-opacity="0.98"/>
<circle cx="301.5" cy="339.5" r="17.5" fill="black" fill-opacity="0.98"/>
</g>
<path opacity="0.63" d="M43 308C43 277.072 68.0721 252 99 252H328C358.928 252 384 277.072 384 308C384 338.928 358.928 364 328 364H99C68.0721 364 43 338.928 43 308Z" fill="#B5ABD0"/>
<path d="M87.88 320H77.8V297.5H87.88C89.9 297.5 91.59 297.71 92.95 298.13C94.31 298.53 95.4 299.18 96.22 300.08C97.04 300.98 97.62 302.14 97.96 303.56C98.32 304.98 98.5 306.7 98.5 308.72C98.5 310.74 98.32 312.47 97.96 313.91C97.62 315.33 97.04 316.49 96.22 317.39C95.4 318.29 94.31 318.95 92.95 319.37C91.59 319.79 89.9 320 87.88 320ZM88 303.26H85V314.24H88C89 314.24 89.71 314.13 90.13 313.91C90.57 313.67 90.79 313.14 90.79 312.32V305.18C90.79 304.36 90.57 303.84 90.13 303.62C89.71 303.38 89 303.26 88 303.26ZM99.9524 308.78C99.9524 306.72 100.122 304.95 100.462 303.47C100.822 301.97 101.412 300.74 102.232 299.78C103.072 298.82 104.172 298.11 105.532 297.65C106.892 297.19 108.572 296.96 110.572 296.96C112.592 296.96 114.272 297.19 115.612 297.65C116.972 298.11 118.062 298.82 118.882 299.78C119.722 300.74 120.312 301.97 120.652 303.47C121.012 304.95 121.192 306.72 121.192 308.78C121.192 310.74 121.032 312.46 120.712 313.94C120.392 315.4 119.822 316.62 119.002 317.6C118.202 318.58 117.112 319.32 115.732 319.82C114.372 320.3 112.652 320.54 110.572 320.54C108.492 320.54 106.762 320.3 105.382 319.82C104.022 319.32 102.932 318.58 102.112 317.6C101.312 316.62 100.752 315.4 100.432 313.94C100.112 312.46 99.9524 310.74 99.9524 308.78ZM107.692 305.03V314.39H110.692C111.692 314.39 112.402 314.28 112.822 314.06C113.262 313.82 113.482 313.29 113.482 312.47V303.11H110.452C109.492 303.11 108.792 303.23 108.352 303.47C107.912 303.69 107.692 304.21 107.692 305.03ZM139.728 297.5V303.26H134.508V320H127.308V303.26H122.088V297.5H139.728ZM140.796 319.61L141.816 313.67C144.016 314.21 146.006 314.48 147.786 314.48C148.686 314.48 149.476 314.47 150.156 314.45C150.856 314.41 151.476 314.35 152.016 314.27V312.47L148.776 312.2C147.316 312.06 146.096 311.82 145.116 311.48C144.136 311.14 143.346 310.68 142.746 310.1C142.166 309.5 141.746 308.79 141.486 307.97C141.246 307.13 141.126 306.15 141.126 305.03C141.126 303.49 141.286 302.21 141.606 301.19C141.926 300.15 142.436 299.32 143.136 298.7C143.836 298.06 144.736 297.61 145.836 297.35C146.956 297.09 148.316 296.96 149.916 296.96C153.096 296.96 155.976 297.26 158.556 297.86L157.656 303.62C155.416 303.26 153.626 303.08 152.286 303.08C150.946 303.08 149.806 303.14 148.866 303.26V305.03L151.446 305.27C153.026 305.43 154.346 305.7 155.406 306.08C156.466 306.44 157.316 306.92 157.956 307.52C158.616 308.12 159.076 308.83 159.336 309.65C159.616 310.47 159.756 311.41 159.756 312.47C159.756 313.99 159.556 315.27 159.156 316.31C158.756 317.35 158.276 318.14 157.716 318.68C157.256 319.12 156.686 319.47 156.006 319.73C155.326 319.97 154.606 320.15 153.846 320.27C153.086 320.39 152.316 320.46 151.536 320.48C150.776 320.52 150.086 320.54 149.466 320.54C147.906 320.54 146.406 320.46 144.966 320.3C143.526 320.14 142.136 319.91 140.796 319.61ZM177.642 316.43L176.832 320H169.242L175.062 297.5H186.192L192.012 320H184.422L183.582 316.43H177.642ZM180.822 304.4H180.432L178.962 310.7H182.262L180.822 304.4ZM213.385 320H206.605L201.115 312.02C201.015 311.88 200.935 311.67 200.875 311.39C200.815 311.11 200.775 310.74 200.755 310.28H200.605V320H193.405V297.5H200.185L205.675 305.48C205.775 305.62 205.855 305.83 205.915 306.11C205.975 306.39 206.015 306.76 206.035 307.22H206.185V297.5H213.385V320ZM227.069 320H216.989V297.5H227.069C229.089 297.5 230.779 297.71 232.139 298.13C233.499 298.53 234.589 299.18 235.409 300.08C236.229 300.98 236.809 302.14 237.149 303.56C237.509 304.98 237.689 306.7 237.689 308.72C237.689 310.74 237.509 312.47 237.149 313.91C236.809 315.33 236.229 316.49 235.409 317.39C234.589 318.29 233.499 318.95 232.139 319.37C230.779 319.79 229.089 320 227.069 320ZM227.189 303.26H224.189V314.24H227.189C228.189 314.24 228.899 314.13 229.319 313.91C229.759 313.67 229.979 313.14 229.979 312.32V305.18C229.979 304.36 229.759 303.84 229.319 303.62C228.899 303.38 228.189 303.26 227.189 303.26ZM262.146 320H249.216V297.5H260.886C263.046 297.5 264.586 297.92 265.506 298.76C266.426 299.6 266.886 300.82 266.886 302.42C266.886 304.04 266.596 305.29 266.016 306.17C265.436 307.03 264.646 307.6 263.646 307.88V308.09C266.546 308.59 267.996 310.57 267.996 314.03C267.996 315.83 267.516 317.28 266.556 318.38C265.616 319.46 264.146 320 262.146 320ZM259.236 311.03H256.416V314.72H259.176C260.196 314.72 260.706 314.1 260.706 312.86C260.706 311.64 260.216 311.03 259.236 311.03ZM258.696 302.42H256.416V305.78H258.636C259.556 305.78 260.016 305.22 260.016 304.1C260.016 302.98 259.576 302.42 258.696 302.42ZM269.435 308.78C269.435 306.72 269.605 304.95 269.945 303.47C270.305 301.97 270.895 300.74 271.715 299.78C272.555 298.82 273.655 298.11 275.015 297.65C276.375 297.19 278.055 296.96 280.055 296.96C282.075 296.96 283.755 297.19 285.095 297.65C286.455 298.11 287.545 298.82 288.365 299.78C289.205 300.74 289.795 301.97 290.135 303.47C290.495 304.95 290.675 306.72 290.675 308.78C290.675 310.74 290.515 312.46 290.195 313.94C289.875 315.4 289.305 316.62 288.485 317.6C287.685 318.58 286.595 319.32 285.215 319.82C283.855 320.3 282.135 320.54 280.055 320.54C277.975 320.54 276.245 320.3 274.865 319.82C273.505 319.32 272.415 318.58 271.595 317.6C270.795 316.62 270.235 315.4 269.915 313.94C269.595 312.46 269.435 310.74 269.435 308.78ZM277.175 305.03V314.39H280.175C281.175 314.39 281.885 314.28 282.305 314.06C282.745 313.82 282.965 313.29 282.965 312.47V303.11H279.935C278.975 303.11 278.275 303.23 277.835 303.47C277.395 303.69 277.175 304.21 277.175 305.03ZM291.391 297.5H299.551L302.041 303.5H302.401L304.891 297.5H312.691L307.711 308.36L312.691 320H304.711L302.011 313.52H301.681L299.011 320H291.391L296.281 308.6L291.391 297.5ZM328.889 306.29V311.51H321.689V314.24H330.509V320H314.489V297.5H330.329L329.429 303.26H321.689V306.29H328.889ZM332.662 319.61L333.682 313.67C335.882 314.21 337.872 314.48 339.652 314.48C340.552 314.48 341.342 314.47 342.022 314.45C342.722 314.41 343.342 314.35 343.882 314.27V312.47L340.642 312.2C339.182 312.06 337.962 311.82 336.982 311.48C336.002 311.14 335.212 310.68 334.612 310.1C334.032 309.5 333.612 308.79 333.352 307.97C333.112 307.13 332.992 306.15 332.992 305.03C332.992 303.49 333.152 302.21 333.472 301.19C333.792 300.15 334.302 299.32 335.002 298.7C335.702 298.06 336.602 297.61 337.702 297.35C338.822 297.09 340.182 296.96 341.782 296.96C344.962 296.96 347.842 297.26 350.422 297.86L349.522 303.62C347.282 303.26 345.492 303.08 344.152 303.08C342.812 303.08 341.672 303.14 340.732 303.26V305.03L343.312 305.27C344.892 305.43 346.212 305.7 347.272 306.08C348.332 306.44 349.182 306.92 349.822 307.52C350.482 308.12 350.942 308.83 351.202 309.65C351.482 310.47 351.622 311.41 351.622 312.47C351.622 313.99 351.422 315.27 351.022 316.31C350.622 317.35 350.142 318.14 349.582 318.68C349.122 319.12 348.552 319.47 347.872 319.73C347.192 319.97 346.472 320.15 345.712 320.27C344.952 320.39 344.182 320.46 343.402 320.48C342.642 320.52 341.952 320.54 341.332 320.54C339.772 320.54 338.272 320.46 336.832 320.3C335.392 320.14 334.002 319.91 332.662 319.61Z" fill="#504D5E"/>
<defs>
<clipPath id="clip0_7_157">
<rect width="420" height="392" fill="white"/>
</clipPath>
</defs>
</svg>
